<?xml version="1.0" encoding="UTF-8"?>
<svg id="Iconos" xmlns="http://www.w3.org/2000/svg" viewBox="0 0 3074.05 614.81">
  <defs>
    <style>
      .cls-1 {
        letter-spacing: -.01em;
      }

      .cls-2 {
        letter-spacing: 0em;
      }

      .cls-3 {
        fill: #112c63;
        stroke: #000;
        stroke-miterlimit: 10;
      }

      .cls-4, .cls-5 {
        fill: #fff;
      }

      .cls-6 {
        letter-spacing: 0em;
      }

      .cls-7 {
        letter-spacing: 0em;
      }

      .cls-5 {
        font-family: BalooBhai2-SemiBold, 'Baloo Bhai 2';
        font-size: 128.51px;
        font-weight: 600;
      }

      .cls-8 {
        fill: #00d9b8;
      }
    </style>
  </defs>
  <polygon class="cls-3" points="3077.26 614.3 2.55 614.3 1528.58 -.01 3077.26 614.3"/>
  <g>
    <polygon class="cls-4" points="1772.08 382.8 1624.97 206.05 1478.96 382.8 1772.08 382.8"/>
    <path class="cls-8" d="M1489.93,103.95v45.01l-141.62,171.26,12.07,15.37,120.76-144.91c1.1-2.19,4.39-2.19,6.59-1.1,2.2,1.1,2.2,4.39,1.11,6.59l-121.87,146.01,34.03,40.62h66.97l113.08-137.23-81.24-97.7v-40.62h18.66v12.07c0,2.2,2.2,4.39,4.39,4.39h41.71c1.11,0,3.3-1.1,3.3-2.19,1.09-1.1,1.09-3.29,0-4.39l-6.59-15.37,6.59-14.27c1.09-1.1,0-3.29,0-4.39-1.1-1.1-2.19-2.2-3.3-2.2h-23.05v-13.18c0-2.19-2.19-4.39-4.39-4.39h-37.32v-3.29c4.39-2.2,7.69-5.49,7.69-10.98,0-6.59-5.49-12.07-12.08-12.07s-12.08,5.49-12.08,12.07c0,4.39,3.3,8.78,6.59,10.98v43.91ZM1527.26,116.03v-7.68,7.68ZM1541.53,91.88v12.07c0,2.2-2.19,4.39-4.39,4.39,2.2,0,4.39-2.2,4.39-4.39v-12.07ZM1499.82,75.42v24.15-24.15ZM1495.42,49.06h0c-1.1,0-2.19,1.1-2.19,2.2s1.1,2.2,2.19,2.2c-1.1,0-2.19-1.1-2.19-2.2-1.11-1.1,0-2.2,2.19-2.2"/>
    <path class="cls-4" d="M1338.73,401.89c-1.57,0-3.14,2.09-3.14,4.18s1.57,4.18,3.14,4.18h236.99c1.57,0,3.13-2.09,3.13-4.18s-1.57-4.18-3.13-4.18h-236.99Z"/>
    <path class="cls-4" d="M1666.69,417.94h-229.45c-2.19,0-4.39,2.19-4.39,4.39s2.2,4.39,4.39,4.39h229.45c2.19,0,4.39-2.2,4.39-4.39,1.1-2.2-1.1-4.39-4.39-4.39"/>
    <path class="cls-4" d="M1719.38,417.94h-28.54c-2.19,0-4.39,2.19-4.39,4.39s2.2,4.39,4.39,4.39h28.54c2.2,0,4.39-2.2,4.39-4.39s-2.19-4.39-4.39-4.39"/>
  </g>
  <text class="cls-5" transform="translate(921.81 552.19)"><tspan class="cls-2" x="0" y="0">A</tspan><tspan x="77.75" y="0">g</tspan><tspan class="cls-6" x="148.56" y="0">i</tspan><tspan x="182.36" y="0">le &amp; </tspan><tspan class="cls-1" x="421" y="0">L</tspan><tspan class="cls-7" x="484.87" y="0">ean Six Sigma</tspan></text>
</svg>