<?xml version="1.0" encoding="UTF-8"?>
<svg id="Casa" xmlns="http://www.w3.org/2000/svg" viewBox="0 0 748.02 461.11">
  <defs>
    <style>
      .cls-1, .cls-2 {
        fill: #fff;
      }

      .cls-3 {
        letter-spacing: 0em;
      }

      .cls-4 {
        fill: #112c63;
        stroke: #fff;
        stroke-miterlimit: 10;
        stroke-width: 3px;
      }

      .cls-2 {
        font-family: BalooBhai2-SemiBold, 'Baloo Bhai 2';
        font-size: 95.95px;
        font-weight: 600;
      }

      .cls-5 {
        letter-spacing: 0em;
      }

      .cls-6 {
        fill: #00d9b8;
      }
    </style>
  </defs>
  <g id="BI_DATA" data-name="BI&amp;amp;DATA">
    <rect class="cls-4" x="1.01" y=".41" width="746.45" height="463.41"/>
    <g>
      <path class="cls-1" d="M188.08,42.47c-6.57-4.01-13.87-7.3-21.53-9.49l-19.7,73.35,41.23-63.86Z"/>
      <path class="cls-6" d="M230.41,57.8c-6.57-10.95-15.33-20.07-25.91-27l-42.69,66.78,68.6-39.78Z"/>
      <path class="cls-1" d="M127.88,124.21c-.37-.37-.37-.73,0-1.09l22.26-82.83c-6.93-1.82-13.87-2.56-20.8-2.56-38.68,0-72.61,26.28-82.83,63.49-12.04,45.61,14.96,92.69,60.57,105.09,7.3,1.82,14.96,2.92,22.26,2.92,38.32,0,71.89-25.54,82.47-62.03l-82.83-22.26q-.73-.37-1.09-.73"/>
      <path class="cls-1" d="M225.31,90.64c-1.82-5.84-4.02-11.68-7.3-17.15l-63.86,37.22,71.16-20.07Z"/>
      <path class="cls-1" d="M234.43,96.48l-77.36,21.53,77.36,20.8c3.65-13.86,3.65-28.46,0-42.33"/>
    </g>
    <text class="cls-2" transform="translate(280.71 252.47)"><tspan x="0" y="0">BI &amp; Da</tspan><tspan class="cls-5" x="300.31" y="0">t</tspan><tspan x="337.53" y="0">a</tspan><tspan x="-2.16" y="115.13">Analyti</tspan><tspan class="cls-3" x="298.43" y="115.13">c</tspan><tspan x="344.68" y="115.13">s</tspan></text>
  </g>
</svg>