<?xml version="1.0" encoding="UTF-8"?>
<svg id="Casa" xmlns="http://www.w3.org/2000/svg" viewBox="0 0 655.8 1557.52">
  <defs>
    <style>
      .cls-1, .cls-2 {
        fill: #fff;
      }

      .cls-3 {
        fill: #00b1e2;
      }

      .cls-4 {
        letter-spacing: 0em;
      }

      .cls-5 {
        letter-spacing: 0em;
      }

      .cls-6 {
        letter-spacing: -.02em;
      }

      .cls-2 {
        font-family: BalooBhai2-SemiBold, 'Baloo Bhai 2';
        font-size: 131px;
        font-weight: 600;
      }

      .cls-7 {
        fill: #00d9b8;
      }

      .cls-8 {
        letter-spacing: 0em;
      }
    </style>
  </defs>
  <g id="CSAT">
    <polygon class="cls-3" points="525.54 1556.44 525.54 417.57 525.75 .57 .02 -.43 -.08 1556.44 525.54 1556.44"/>
    <g>
      <path class="cls-1" d="M156.25,776.01c9.64,0,17.49-7.84,17.49-17.46s-7.85-17.5-17.49-17.5-17.49,7.85-17.49,17.5,7.85,17.46,17.49,17.46"/>
      <path class="cls-1" d="M283.46,660.7c0,2.37-1.91,4.29-4.27,4.29h-88.66c-2.06,0-3.8-1.47-4.19-3.42-.06-.27-.09-.57-.09-.86v-13.3H50.06v236.83h369.63v-236.83h-136.23v13.3ZM229.12,840.33c0,2.36-1.91,4.27-4.27,4.27H87.65c-2.36,0-4.27-1.91-4.27-4.27v-145.98c0-2.36,1.91-4.28,4.27-4.28h137.2c2.35,0,4.27,1.92,4.27,4.28v145.98ZM343.3,834.07h-83.91c-2.37,0-4.28-1.92-4.28-4.28s1.91-4.28,4.28-4.28h83.91c2.36,0,4.28,1.91,4.28,4.28s-1.91,4.28-4.28,4.28M361.41,771.63h-102.02c-2.37,0-4.28-1.91-4.28-4.27s1.91-4.28,4.28-4.28h102.02c2.36,0,4.28,1.92,4.28,4.28s-1.91,4.27-4.28,4.27M387.65,704.92c0,2.36-1.91,4.28-4.28,4.28h-123.98c-2.37,0-4.28-1.91-4.28-4.28s1.91-4.27,4.28-4.27h123.98c2.37,0,4.28,1.91,4.28,4.27"/>
      <path class="cls-1" d="M91.93,836.06h18.93v-21c0-16.3,13.26-29.57,29.56-29.57h31.67c16.3,0,29.55,13.27,29.55,29.57v21h18.94v-137.43H91.93v137.43ZM156.25,732.51c14.36,0,26.04,11.68,26.04,26.04s-11.68,26.01-26.04,26.01-26.05-11.67-26.05-26.01,11.68-26.04,26.05-26.04"/>
      <path class="cls-1" d="M436.85,578.87c-2.08,0-3.86-1.5-4.22-3.56-1.05-6.11-3.51-12.08-7.13-17.28-1.19-1.7-.99-4,.49-5.47l7.66-7.66-5.69-5.71-7.69,7.69c-1.46,1.47-3.78,1.67-5.48.48-5.1-3.59-11.07-6.07-17.27-7.17-2.04-.36-3.52-2.13-3.52-4.21v-10.84h-8.06v10.84c0,2.08-1.49,3.85-3.54,4.22-6.25,1.11-12.07,3.51-17.3,7.17-1.7,1.19-4.01.99-5.48-.49l-7.66-7.68-5.7,5.71,7.68,7.66c1.46,1.46,1.68,3.78.48,5.48-3.65,5.22-6.07,11.04-7.17,17.3-.36,2.05-2.14,3.53-4.21,3.53h-10.85v8.02h10.85c2.07,0,3.85,1.49,4.21,3.53,1.12,6.32,3.53,12.13,7.16,17.29,1.2,1.7,1,4.02-.47,5.48l-7.68,7.69,5.7,5.69,7.66-7.66c1.46-1.46,3.76-1.67,5.46-.49,5.25,3.63,11.08,6.04,17.31,7.14,2.05.36,3.54,2.14,3.54,4.21v10.89h8.06v-10.89c0-2.07,1.49-3.85,3.53-4.21,6.2-1.1,12.18-3.57,17.26-7.16,1.7-1.2,4.01-1,5.48.46l7.7,7.69,5.68-5.68-7.66-7.7c-1.47-1.46-1.66-3.77-.48-5.47,3.62-5.18,6.08-11.16,7.13-17.27.35-2.05,2.13-3.56,4.22-3.56h10.9v-8.02h-10.9ZM389.95,611.4c-15.7,0-28.46-12.8-28.46-28.52s12.76-28.47,28.46-28.47,28.51,12.77,28.51,28.47-12.79,28.52-28.51,28.52"/>
      <path class="cls-7" d="M328.72,488.42l-12.4-13.13-8.75-13.38c-.81-1.24-2.17-1.97-3.68-1.93-1.48.03-2.84.83-3.58,2.11l-9.72,16.57c-.35.61-.56,1.31-.58,2.02l-.77,22.89-5.96,8.27c-10.15-6.46-21.99-10.47-34.72-11.14-.09,0-.18,0-.26-.01-1.19-.06-2.38-.09-3.59-.09-39.72,0-72.04,32.32-72.04,72.05s32.32,72.04,72.04,72.04c1.19,0,2.37-.04,3.56-.09.58-.03,1.14-.08,1.71-.12,37.28-2.7,66.77-33.87,66.77-71.83,0-22.48-10.34-42.58-26.52-55.8l-8.32,11.53c12.61,10.62,20.66,26.53,20.66,44.27,0,31.87-25.95,57.82-57.86,57.82s-57.85-25.95-57.85-57.82,25.95-57.86,57.85-57.86c11.09,0,21.46,3.15,30.27,8.58l-5.01,6.95c-7.39-4.43-16.03-6.98-25.26-6.98-27.19,0-49.31,22.12-49.31,49.31s22.12,49.26,49.31,49.26,49.31-22.1,49.31-49.26c0-14.9-6.65-28.26-17.13-37.31l-7.69,10.67c7.19,6.62,11.71,16.11,11.71,26.64,0,19.95-16.24,36.19-36.2,36.19s-36.2-16.24-36.2-36.19,16.24-36.2,36.2-36.2c6.37,0,12.35,1.65,17.56,4.55l-5.05,7c-3.76-1.91-8-3-12.5-3-15.24,0-27.65,12.41-27.65,27.65s12.41,27.64,27.65,27.64,27.65-12.4,27.65-27.64c0-7.68-3.14-14.63-8.21-19.64l-6.86,9.53c2.23,2.77,3.57,6.28,3.57,10.11,0,8.9-7.24,16.14-16.15,16.14s-16.15-7.25-16.15-16.14,7.25-16.16,16.15-16.16c1.98,0,3.88.38,5.64,1.04l-5.42,7.52c-.07,0-.14,0-.21,0-4.18,0-7.59,3.4-7.59,7.6s3.41,7.59,7.59,7.59,7.6-3.41,7.6-7.59c0-.91-.16-1.78-.46-2.58l-1.72,2.39c-.83,1.16-2.14,1.77-3.47,1.77,1.32,0,2.64-.61,3.47-1.77l45.88-63.63,22.56-5.27c.78-.19,1.49-.58,2.06-1.15l8.02-8.03c1.65-1.64,1.68-4.29.09-5.96M298.52,482.05l5.68-9.69-5.68,9.69-.3,9.06.3-9.06ZM313.4,484.66h0l-9.8,13.61,9.8-13.61Z"/>
    </g>
    <text class="cls-2" transform="translate(103.72 493.18) rotate(-48.58)"><tspan class="cls-4" x="0" y="0">C</tspan><tspan x="75.19" y="0">us</tspan><tspan class="cls-5" x="211.04" y="0">t</tspan><tspan x="260.29" y="0">omer</tspan></text>
    <text class="cls-2" transform="translate(58.3 1497.66) rotate(-48.58)"><tspan class="cls-8" x="0" y="0">S</tspan><tspan x="71.65" y="0">atis</tspan><tspan class="cls-6" x="286.36" y="0">f</tspan><tspan x="337.84" y="0">action</tspan></text>
  </g>
</svg>