<?xml version="1.0" encoding="UTF-8"?>
<svg id="Casa" xmlns="http://www.w3.org/2000/svg" xmlns:xlink="http://www.w3.org/1999/xlink" viewBox="0 0 3074.05 532.84">
  <defs>
    <style>
      .cls-1 {
        fill: #fff;
      }

      .cls-2 {
        fill: #00b1e2;
      }

      .cls-3 {
        fill: none;
      }

      .cls-4 {
        letter-spacing: 0em;
      }

      .cls-5 {
        letter-spacing: 0em;
      }

      .cls-6 {
        font-family: BalooBhai2-SemiBold, 'Baloo Bhai 2';
        font-size: 196.44px;
        font-weight: 600;
      }

      .cls-7 {
        fill: #00d9b8;
      }

      .cls-8 {
        clip-path: url(#clippath);
      }
    </style>
    <clipPath id="clippath">
      <circle class="cls-3" cx="1514.52" cy="274.66" r="236"/>
    </clipPath>
  </defs>
  <g id="Knowledge">
    <polygon class="cls-2" points="3062.12 541.66 2936.1 8.71 141.02 8.07 -11.18 540.38 3062.12 541.66"/>
    <g class="cls-8">
      <g>
        <path class="cls-1" d="M1506.62,513.8v-49.53h-10.76c-36.6,0-66.74-30.14-66.74-66.75s30.13-66.75,66.74-66.75h10.76v-49.53h-62.45c-2.15,0-4.29-2.15-6.44-4.31-2.17-2.15-2.17-6.46,0-8.61,2.15-4.3,2.15-10.76,2.15-17.22,0-25.84-21.55-49.53-49.54-49.53-25.84,0-49.51,21.53-49.51,49.53,0,6.46,0,10.76,2.15,17.22v4.31c0,4.3-4.32,8.61-8.61,8.61h-60.3c8.61,127.04,107.66,228.24,232.55,232.56"/>
        <path class="cls-1" d="M1754.67,282.33h-49.53s0,10.76,0,10.76c0,36.6-30.14,66.74-66.75,66.74-36.61,0-66.75-30.13-66.75-66.74v-10.76s-49.53,0-49.53,0v60.27s0,2.17,0,2.17c0,2.15-2.15,4.29-4.31,6.44-2.15,2.17-6.46,2.17-8.61,0-4.3-2.15-10.76-2.15-17.22-2.15-25.84,0-49.53,21.55-49.53,49.54,0,25.84,21.53,49.51,49.53,49.51,6.46,0,10.76,0,17.22-2.15h4.31c4.3,0,8.61,4.32,8.61,8.61v60.3c127.04-8.61,228.24-107.66,232.56-232.55"/>
        <path class="cls-1" d="M1276.73,267.51h49.53s0-10.76,0-10.76c0-36.6,30.14-66.74,66.75-66.74,36.61,0,66.75,30.13,66.75,66.74v10.76s49.53,0,49.53,0v-60.27s0-2.17,0-2.17c0-2.15,2.15-4.29,4.31-6.44,2.15-2.17,6.46-2.17,8.61,0,4.3,2.15,10.76,2.15,17.22,2.15,25.84,0,49.53-21.55,49.53-49.54,0-25.84-21.53-49.51-49.53-49.51-6.46,0-10.76,0-17.22,2.15h-4.31c-4.3,0-8.61-4.32-8.61-8.61v-60.3c-127.04,8.61-228.24,107.66-232.56,232.55"/>
        <path class="cls-7" d="M1522.53,35.65v49.53s10.76,0,10.76,0c36.6,0,66.74,30.14,66.74,66.75,0,36.61-30.13,66.75-66.74,66.75h-10.76s0,49.53,0,49.53h60.27s2.17,0,2.17,0c2.15,0,4.29,2.15,6.44,4.31,2.17,2.15,2.17,6.46,0,8.61-2.15,4.3-2.15,10.76-2.15,17.22,0,25.84,21.55,49.53,49.54,49.53,25.84,0,49.51-21.53,49.51-49.53,0-6.46,0-10.76-2.15-17.22v-4.31c0-4.3,4.32-8.61,8.61-8.61h60.3c-8.61-127.04-107.66-228.24-232.55-232.56"/>
      </g>
    </g>
    <text class="cls-6" transform="translate(215.76 300.19)"><tspan class="cls-4" x="0" y="0">K</tspan><tspan x="115.5" y="0">n</tspan><tspan class="cls-5" x="226.88" y="0">o</tspan><tspan x="337.67" y="0">wledge</tspan></text>
    <text class="cls-6" transform="translate(1803.51 300.19)"><tspan x="0" y="0">Management</tspan></text>
  </g>
</svg>