<?xml version="1.0" encoding="UTF-8"?>
<svg id="Casa" xmlns="http://www.w3.org/2000/svg" viewBox="0 0 1598.51 461.11">
  <defs>
    <style>
      .cls-1 {
        letter-spacing: 0em;
      }

      .cls-2 {
        font-size: 116.78px;
      }

      .cls-2, .cls-3 {
        font-family: BalooBhai2-SemiBold, 'Baloo Bhai 2';
        font-weight: 600;
      }

      .cls-4 {
        letter-spacing: -.01em;
      }

      .cls-5 {
        letter-spacing: 0em;
      }

      .cls-6 {
        fill: #fff;
      }

      .cls-7 {
        fill: #00b1e2;
      }

      .cls-8 {
        letter-spacing: -.02em;
      }

      .cls-9 {
        letter-spacing: -.03em;
      }

      .cls-10 {
        letter-spacing: 0em;
      }

      .cls-11 {
        letter-spacing: -.04em;
      }

      .cls-12 {
        letter-spacing: 0em;
      }

      .cls-3 {
        font-size: 113.82px;
      }

      .cls-13 {
        fill: #002f6f;
      }

      .cls-14 {
        letter-spacing: -.01em;
      }

      .cls-15 {
        letter-spacing: 0em;
      }

      .cls-16 {
        letter-spacing: 0em;
      }

      .cls-17 {
        letter-spacing: 0em;
      }

      .cls-18 {
        letter-spacing: -.02em;
      }

      .cls-19 {
        letter-spacing: -.01em;
      }

      .cls-20 {
        fill: #00d9b8;
      }

      .cls-21 {
        letter-spacing: 0em;
      }
    </style>
  </defs>
  <g id="Process">
    <rect class="cls-7" x="1.54" y="1.84" width="1605.39" height="454.66"/>
    <g>
      <path class="cls-6" d="M330.56,355.52h-.98s-67.68-2.12-67.68-2.12c-17.11-.54-30.59-14.88-30.06-31.99l3.46-110.93c.54-17.18,14.66-30.63,31.99-30.05l67.69,2.11c17.11.53,30.59,14.88,30.06,31.99l-3.46,110.93c-.53,16.87-14.15,30.07-31.01,30.07M266.31,197.33c-7.66,0-13.85,6.01-14.09,13.67l-3.46,110.93c-.24,7.77,5.89,14.3,13.66,14.54l68.14,2.11c7.66,0,13.85-6,14.09-13.67l3.46-110.92c.24-7.78-5.89-14.31-13.66-14.55l-68.14-2.12Z"/>
      <path class="cls-6" d="M299.96,67.21l.48-3.09c1.41-9.02-4.62-17.46-13.46-18.84-8.84-1.38-17.15,4.82-18.56,13.84l-.48,3.09,32.02,4.99Z"/>
      <path class="cls-6" d="M299.96,67.21l2.46.38.48-3.1c.16-1.01.23-2.01.23-3,0-9.17-6.54-17.23-15.77-18.68-.95-.15-1.91-.22-2.85-.22-9.13,0-17.09,6.77-18.56,16.15l-.48,3.1c-.21,1.36.72,2.63,2.08,2.84l32.02,5c.66.1,1.32-.07,1.85-.45.54-.4.89-.97.99-1.63l-2.46-.38.38-2.46-29.55-4.61.09-.64c1.09-6.98,7.01-11.93,13.64-11.93.68,0,1.37.06,2.08.17,6.72,1.04,11.56,6.95,11.56,13.75,0,.74-.06,1.48-.18,2.24l-.48,3.1,2.46.38.38-2.46-.38,2.46Z"/>
      <polygon class="cls-13" points="268.77 267.84 236.55 262.81 266.21 72.62 298.43 77.64 268.77 267.84"/>
      <path class="cls-6" d="M268.77,267.84l.38-2.46-29.75-4.64,28.9-185.26,27.29,4.25-29.28,187.73,2.46.39.38-2.46-.38,2.46,2.46.39,29.66-190.2c.21-1.36-.72-2.63-2.08-2.85l-32.21-5.02c-1.36-.21-2.63.72-2.85,2.08l-29.66,190.18c-.1.66.06,1.32.45,1.86.39.54.97.89,1.62.99l32.22,5.03c.66.1,1.32-.06,1.85-.44.54-.4.89-.97.99-1.63l-2.46-.39Z"/>
      <path class="cls-6" d="M268.73,267.89l.04-.06h-.03c.59-3.94-1.23-9.2-4.29-9.68-1.95-.3-3.87.72-5.17,2.52-.05-3.94-1.03-7.77-3.82-8.2-3.44-.53-6.46,3.16-7.61,7.44-.48-2.63-2.16-4.68-4.42-5.04-3.08-.48-6.26,3.99-6.88,7.93l10.12,40.93,22.05-35.83h0Z"/>
      <path class="cls-6" d="M268.73,267.89l2.07,1.38.04-.05c.44-.65.54-1.48.28-2.22-.26-.74-.87-1.32-1.62-1.55h-.03s-.73,2.37-.73,2.37l2.46.37c.1-.63.14-1.27.14-1.91,0-2.21-.49-4.45-1.46-6.4-.49-.97-1.11-1.87-1.92-2.63-.81-.75-1.88-1.38-3.13-1.56h0l-1.07-.09c-2.7.01-5,1.53-6.5,3.6l2.02,1.46,2.5-.03c-.04-2.17-.29-4.34-1.06-6.31-.39-.98-.93-1.92-1.73-2.72-.79-.8-1.91-1.42-3.14-1.6l-1.04-.09c-2.55.02-4.63,1.39-6.13,3.1-1.51,1.73-2.59,3.91-3.23,6.25l2.41.65,2.45-.45c-.31-1.7-1.01-3.27-2.11-4.54-1.08-1.27-2.61-2.23-4.39-2.5h0l-.85-.07c-1.34,0-2.53.48-3.52,1.13-1.49.98-2.63,2.37-3.53,3.91-.9,1.55-1.54,3.27-1.82,5.04l.04.98,10.12,40.93c.24.98,1.04,1.71,2.04,1.86.99.16,1.98-.3,2.5-1.15l22.06-35.83-2.13-1.31v2.5h0c.66,0,1.3-.27,1.76-.73.46-.46.73-1.11.73-1.76h0s-2.49,0-2.49,0l2.07,1.38-2.07-1.38h-2.49s2.49,0,2.49,0v-2.49h0c-.86,0-1.67.45-2.12,1.19l-18.94,30.77-8.69-35.16-2.42.6,2.46.38c.21-1.4.94-3.09,1.84-4.26.44-.59.92-1.04,1.32-1.29l.79-.3h.08c.48.09.93.33,1.37.83.44.5.81,1.27.98,2.19.21,1.14,1.18,2,2.35,2.04,1.16.05,2.2-.72,2.51-1.84.44-1.67,1.26-3.24,2.15-4.25.92-1.04,1.77-1.41,2.39-1.4l.28.02.39.22c.26.23.65.92.9,1.93.26,1.01.4,2.29.42,3.62.02,1.08.71,2.02,1.74,2.35,1.03.33,2.14-.04,2.77-.91.8-1.1,1.75-1.55,2.47-1.54l.29.02h0l.5.3c.39.35.9,1.13,1.24,2.13.35.99.55,2.17.55,3.24l-.08,1.17c-.18,1.22.55,2.38,1.73,2.75h.03s.73-2.37.73-2.37l-2.07-1.38-.04.06c-.27.4-.42.89-.42,1.38h2.49Z"/>
      <polygon class="cls-6" points="247.92 290.09 243.7 291.72 246.67 303.74 254.11 291.63 253.36 288.08 249.42 292.71 247.92 290.09"/>
      <path class="cls-6" d="M247.92,290.09l-.9-2.33-4.23,1.63c-1.17.46-1.82,1.71-1.52,2.93l2.97,12.02c.24.98,1.04,1.71,2.03,1.86,1,.15,1.98-.3,2.5-1.15l7.45-12.1c.33-.55.45-1.21.32-1.82l-.76-3.56c-.2-.93-.91-1.67-1.83-1.9-.92-.23-1.9.08-2.51.8l-3.93,4.62,1.9,1.62,2.16-1.24-1.49-2.62c-.61-1.07-1.91-1.53-3.06-1.09l.9,2.33-2.16,1.24,1.5,2.62c.4.7,1.13,1.17,1.93,1.24.81.08,1.6-.25,2.13-.87l3.94-4.63-1.9-1.61-2.44.51.55,2.59-3.81,6.19-1.01-4.11,2.17-.84-.9-2.33-2.16,1.24,2.16-1.24Z"/>
      <rect class="cls-6" x="276.14" y="54.72" width="13.64" height="32.61" transform="translate(169.15 339.65) rotate(-81.13)"/>
      <path class="cls-6" d="M298.02,80.28l.38-2.46-29.75-4.64,1.34-8.55,27.29,4.26-1.72,11.01,2.46.39.38-2.46-.38,2.46,2.46.39,2.1-13.48c.21-1.36-.72-2.63-2.08-2.85l-32.21-5.02c-1.36-.21-2.63.72-2.85,2.08l-2.1,13.47c-.11.66.05,1.32.45,1.86.39.53.97.89,1.63.99l32.21,5.03c.66.1,1.32-.06,1.85-.44.54-.4.89-.97.99-1.63l-2.46-.39Z"/>
      <rect class="cls-6" x="280.83" y="57.59" width="3.37" height="32.61" transform="translate(165.97 341.65) rotate(-81.14)"/>
      <polygon class="cls-6" points="299.26 72.34 267.04 67.32 267.56 63.98 299.78 69.01 299.26 72.34"/>
      <path class="cls-6" d="M244.6,243.76c-.13.86-.93,1.44-1.79,1.31-.86-.13-1.44-.93-1.31-1.79l24.98-160.15c.13-.86.93-1.44,1.79-1.31.86.13,1.45.94,1.31,1.8l-24.97,160.14Z"/>
      <path class="cls-6" d="M257.3,245.74c-.13.86-.94,1.45-1.79,1.32-.86-.13-1.45-.94-1.31-1.8l24.98-160.14c.13-.85.94-1.44,1.8-1.31.85.14,1.43.94,1.3,1.8l-24.98,160.14Z"/>
      <path class="cls-6" d="M270,247.72c-.13.86-.93,1.44-1.79,1.3-.86-.13-1.44-.93-1.31-1.79l24.98-160.14c.13-.86.94-1.44,1.79-1.31.86.14,1.44.94,1.31,1.79l-24.98,160.15Z"/>
      <path class="cls-6" d="M151.33,301.4l.61,3.07c1.76,8.97,10.3,14.83,19.09,13.11,8.78-1.73,14.48-10.39,12.71-19.35l-.6-3.08-31.8,6.25Z"/>
      <path class="cls-6" d="M151.33,301.4l-2.45.48.61,3.07c1.78,9.07,9.62,15.41,18.45,15.42,1.18,0,2.37-.11,3.56-.35h0c8.93-1.76,15.05-9.67,15.04-18.52,0-1.24-.12-2.49-.36-3.75l-.61-3.08c-.26-1.35-1.57-2.23-2.92-1.97l-31.8,6.25c-1.35.26-2.23,1.58-1.97,2.92l2.45-.48.48,2.44,29.36-5.77.12.63c.18.94.27,1.87.27,2.79,0,6.56-4.53,12.36-11.03,13.63h.01c-.88.17-1.76.25-2.61.25-6.41,0-12.24-4.65-13.56-11.39l-.6-3.07-2.45.48.48,2.44-.48-2.44Z"/>
      <rect class="cls-13" x="130.34" y="97.24" width="32.6" height="192.49" transform="translate(-34.56 31.91) rotate(-11.12)"/>
      <path class="cls-6" d="M112.09,102.19l.48,2.44,29.55-5.8,36.14,183.99-27.1,5.32-36.62-186.43-2.45.48.48,2.44-.48-2.44-2.44.48,37.1,188.89c.12.64.51,1.22,1.05,1.59.55.37,1.23.5,1.87.38l31.99-6.29c.65-.13,1.21-.5,1.59-1.05.37-.55.5-1.22.37-1.87l-37.1-188.88c-.26-1.35-1.58-2.24-2.93-1.97l-31.99,6.28c-1.35.26-2.23,1.58-1.96,2.92l2.44-.48Z"/>
      <path class="cls-20" d="M112.11,102.13v.07s.02,0,.02,0c.8,3.9,4.3,8.23,7.34,7.63,1.94-.38,3.39-2,3.99-4.12,1.39,3.68,3.63,6.94,6.39,6.4,3.42-.67,4.99-5.18,4.61-9.59,1.35,2.31,3.62,3.66,5.88,3.22,3.06-.59,4.52-5.88,3.75-9.8l-23.5-35.01-8.48,41.22h0Z"/>
      <path class="cls-6" d="M112.11,102.13l-2.44-.53-.02.07c-.17.81.07,1.65.64,2.24.57.6,1.4.88,2.21.74h.03s-.41-2.47-.41-2.47l-2.44.5c.48,2.31,1.6,4.52,3.11,6.31.76.9,1.62,1.69,2.62,2.31.99.6,2.16,1.05,3.47,1.05l1.04-.1h.02c1.51-.3,2.84-1.1,3.82-2.14.99-1.05,1.69-2.35,2.09-3.75l-2.4-.68-2.33.88c.72,1.88,1.62,3.69,2.85,5.21.62.75,1.34,1.44,2.21,1.97.87.53,1.93.89,3.07.89l1.07-.1h.02c2.46-.48,4.23-2.25,5.22-4.19,1.01-1.97,1.45-4.25,1.45-6.56,0-.5-.02-1.01-.07-1.5l-2.48.22-2.15,1.26c1.51,2.58,4.07,4.51,7.16,4.53.45,0,.9-.04,1.33-.12h.01c1.16-.23,2.17-.83,2.92-1.56,1.15-1.11,1.85-2.48,2.33-3.93.48-1.46.71-3.02.71-4.58,0-.9-.09-1.79-.25-2.66l-.37-.9-23.5-35.01c-.55-.83-1.56-1.25-2.55-1.05-.99.19-1.76.96-1.96,1.94l-8.48,41.22,2.44.5-2.23-1.12h0s-.26,1.12-.26,1.12h0s2.49,0,2.49,0l-2.44-.53,2.44.53h2.49s-2.49,0-2.49,0l2.23,1.12h0s.21-.62.21-.62l7.29-35.39,20.18,30.07,2.07-1.39-2.44.48c.1.51.15,1.1.15,1.69,0,1.4-.31,2.87-.79,3.86-.24.49-.5.86-.71,1.06l-.44.26h0l-.39.03c-.81.03-2.02-.62-2.86-2.06-.59-1.01-1.8-1.47-2.9-1.12-1.12.35-1.83,1.43-1.73,2.59l.05,1.07c0,1.65-.35,3.23-.9,4.27-.58,1.06-1.14,1.47-1.76,1.6h.02s-.15.01-.15.01l-.48-.17c-.37-.22-.94-.78-1.48-1.61-.54-.84-1.07-1.91-1.5-3.07-.38-1-1.36-1.65-2.44-1.61-1.07.05-2,.77-2.29,1.81-.2.72-.54,1.31-.91,1.69l-1.17.68h.02s-.12,0-.12,0l-.87-.32c-.64-.39-1.45-1.2-2.09-2.19-.65-1-1.15-2.17-1.35-3.18-.27-1.31-1.53-2.17-2.85-1.95h-.03s.41,2.46.41,2.46l2.44.52v-.07s.07-.52.07-.52h-2.49Z"/>
      <polygon class="cls-6" points="124.08 74.16 127.5 71.19 120.59 60.9 117.73 74.82 119.66 77.9 121.78 72.21 124.08 74.16"/>
      <rect class="cls-6" x="149.69" y="285.19" width="32.6" height="13.64" transform="translate(-53.13 37.43) rotate(-11.1)"/>
      <path class="cls-6" d="M148.69,288.46l.48,2.45,29.55-5.8,1.67,8.49-27.11,5.32-2.15-10.93-2.44.48.48,2.45-.48-2.45-2.45.48,2.63,13.38c.13.65.51,1.23,1.05,1.59.55.36,1.23.5,1.87.38l31.99-6.28c.66-.13,1.22-.5,1.59-1.05.37-.55.5-1.22.38-1.87l-2.63-13.38c-.26-1.35-1.57-2.23-2.92-1.96l-31.99,6.28c-.65.12-1.22.51-1.59,1.05-.37.54-.5,1.23-.38,1.86l2.45-.48Z"/>
      <rect class="cls-6" x="149.13" y="287.48" width="32.61" height="3.38" transform="translate(-52.65 37.33) rotate(-11.12)"/>
      <path class="cls-6" d="M149.12,290.65l.48,2.45,29.55-5.81.17.86,2.45-.48-.48-2.45-29.55,5.8-.17-.86-2.45.48.48,2.45-.48-2.45-2.44.48.65,3.31c.13.65.5,1.22,1.05,1.59.55.37,1.22.5,1.87.37l32-6.28c.65-.13,1.22-.51,1.58-1.05.37-.55.5-1.22.38-1.87l-.65-3.31c-.26-1.35-1.58-2.23-2.93-1.97l-31.99,6.29c-1.35.26-2.23,1.57-1.96,2.92l2.44-.48Z"/>
      <rect class="cls-6" x="150.25" y="293.17" width="32.6" height="3.37" transform="translate(-53.7 37.62) rotate(-11.11)"/>
      <path class="cls-6" d="M150.23,296.34l.48,2.45,29.55-5.81.17.86,2.44-.48-.48-2.44-29.55,5.8-.17-.86-2.44.48.48,2.45-.48-2.45-2.45.48.66,3.31c.26,1.35,1.58,2.23,2.92,1.96l31.99-6.29c1.36-.26,2.23-1.57,1.97-2.92l-.65-3.31c-.13-.64-.51-1.22-1.05-1.59-.55-.37-1.23-.5-1.87-.38l-31.99,6.29c-.66.13-1.22.5-1.59,1.05-.37.55-.5,1.22-.38,1.87l2.45-.48Z"/>
      <path class="cls-13" d="M143.03,116.56c-.17-.85.39-1.67,1.23-1.84.85-.17,1.67.38,1.84,1.24l31.24,159.04c.17.85-.39,1.67-1.24,1.84-.85.17-1.67-.38-1.84-1.23l-31.24-159.05Z"/>
      <path class="cls-13" d="M130.42,119.04c-.17-.85.38-1.67,1.23-1.84.85-.17,1.67.38,1.84,1.23l31.24,159.05c.17.85-.39,1.67-1.24,1.84-.85.17-1.67-.39-1.84-1.24l-31.24-159.04Z"/>
      <path class="cls-13" d="M117.81,121.52c-.17-.86.39-1.68,1.23-1.85.85-.17,1.67.39,1.84,1.23l31.24,159.05c.17.85-.39,1.67-1.24,1.84-.85.17-1.67-.38-1.84-1.23l-31.24-159.04Z"/>
      <path class="cls-13" d="M226.23,102.12l.22-3.13c.64-9.11-6.07-17-15-17.63-8.93-.64-16.69,6.24-17.33,15.35l-.22,3.13,32.33,2.28Z"/>
      <path class="cls-6" d="M226.23,102.12l2.48.18.22-3.14c.03-.46.05-.92.05-1.38,0-9.86-7.48-18.21-17.36-18.91h0c-.44-.03-.88-.05-1.32-.05-9.79,0-17.97,7.71-18.67,17.71l-.22,3.13c-.1,1.38.94,2.57,2.31,2.66l32.33,2.29c.66.05,1.31-.17,1.81-.6.5-.44.81-1.05.85-1.71l-2.48-.18.18-2.48-29.84-2.11.04-.64c.53-7.44,6.6-13.08,13.71-13.08l.96.03h0c7.18.5,12.72,6.62,12.73,13.94l-.04,1.04-.22,3.14,2.49.17.18-2.48-.18,2.48Z"/>
      <rect class="cls-6" x="106.3" y="191.19" width="192.49" height="32.6" transform="translate(-18.7 394.92) rotate(-85.96)"/>
      <path class="cls-6" d="M212.03,304.65l.18-2.48-30.04-2.13,13.2-187.04,27.56,1.94-13.37,189.53,2.48.17.18-2.48-.18,2.48,2.48.18,13.55-192.02c.1-1.37-.94-2.56-2.31-2.66l-32.52-2.29c-1.37-.1-2.57.94-2.66,2.31l-13.55,192.02c-.1,1.38.94,2.57,2.31,2.66l32.53,2.3c.66.04,1.31-.17,1.81-.6.5-.44.8-1.05.85-1.71l-2.48-.18Z"/>
      <path class="cls-6" d="M212,304.71l.03-.06h-.03c.25-3.97-2-9.06-5.09-9.28-1.97-.14-3.8,1.04-4.94,2.94-.38-3.92-1.69-7.65-4.5-7.85-3.47-.25-6.17,3.69-6.96,8.05-.7-2.59-2.54-4.48-4.83-4.65-3.11-.22-5.9,4.5-6.18,8.48l13.53,39.93,18.96-37.56h0Z"/>
      <path class="cls-6" d="M212,304.71l2.19,1.18.03-.06c.39-.71.4-1.55.04-2.28-.35-.73-1.03-1.23-1.83-1.36h-.03l-.41,2.46,2.48.15.02-.77c0-2.39-.63-4.82-1.76-6.9-.57-1.03-1.28-1.99-2.2-2.76-.91-.77-2.1-1.38-3.47-1.48h.02s-.5-.02-.5-.02c-2.94.02-5.35,1.81-6.76,4.16l2.14,1.29,2.48-.24c-.22-2.16-.66-4.31-1.59-6.2-.47-.94-1.09-1.83-1.95-2.57-.86-.72-2.02-1.25-3.26-1.33h.02l-.5-.02c-2.67,0-4.82,1.54-6.25,3.41-1.45,1.89-2.39,4.23-2.85,6.7l2.45.44,2.41-.65c-.45-1.67-1.28-3.18-2.48-4.36-1.19-1.17-2.79-2-4.59-2.12l-.18,2.49.21-2.48-.42-.02c-1.4,0-2.64.53-3.63,1.25-1.49,1.09-2.56,2.59-3.37,4.24-.8,1.66-1.32,3.48-1.46,5.31l.13.98,13.53,39.93c.32.95,1.18,1.61,2.18,1.69,1,.07,1.95-.46,2.4-1.36l18.96-37.57-2.22-1.12v2.5h0c.66,0,1.29-.27,1.76-.73.46-.46.72-1.11.72-1.76h0s-2.49,0-2.49,0l2.19,1.18-2.19-1.18h-2.49s2.49,0,2.49,0v-2.49h0c-.94,0-1.8.53-2.22,1.37l-16.28,32.25-11.62-34.3-2.36.8,2.48.17c.09-1.46.72-3.27,1.55-4.5.41-.62.86-1.1,1.23-1.36l.7-.31h.03c.5.04.97.24,1.45.71.47.46.91,1.19,1.15,2.1.31,1.13,1.35,1.89,2.51,1.84,1.16-.04,2.14-.9,2.35-2.04.31-1.77,1.03-3.46,1.88-4.54.88-1.11,1.67-1.49,2.31-1.48h.13s.02,0,.02,0l.41.18c.27.21.72.85,1.06,1.85.35.98.59,2.25.72,3.57.11,1.07.88,1.95,1.93,2.19,1.05.24,2.13-.23,2.69-1.15.76-1.24,1.72-1.76,2.49-1.75h.12s.02,0,.02,0l.6.31c.48.39,1.1,1.28,1.51,2.38.43,1.1.68,2.38.68,3.48l-.02.46c-.08,1.27.82,2.4,2.08,2.61h.03s.41-2.46.41-2.46l-2.19-1.18-.03.06-.3,1.18h2.49Z"/>
      <polygon class="cls-6" points="193.14 328.58 189.06 330.56 193.04 342.28 199.44 329.6 198.38 326.13 194.85 331.06 193.14 328.58"/>
      <path class="cls-6" d="M193.14,328.58l-1.09-2.24-4.08,1.98c-1.13.55-1.67,1.85-1.27,3.04l3.98,11.72c.32.96,1.18,1.61,2.18,1.69,1.01.07,1.95-.47,2.4-1.37l6.41-12.68c.29-.57.34-1.24.16-1.85l-1.06-3.48c-.28-.9-1.05-1.58-1.98-1.73-.94-.15-1.88.24-2.43,1.01l-3.53,4.94,2.03,1.45,2.05-1.41-1.71-2.48c-.7-1.02-2.03-1.37-3.14-.83l1.09,2.24-2.05,1.41,1.71,2.48c.46.66,1.22,1.07,2.03,1.08.81,0,1.58-.39,2.05-1.04l3.53-4.94-2.02-1.45-2.39.72.77,2.52-3.27,6.48-1.36-4.02,2.1-1.02-1.09-2.24-2.05,1.41,2.05-1.41Z"/>
      <rect class="cls-6" x="202.79" y="91.04" width="13.63" height="32.61" transform="translate(87.79 308.89) rotate(-85.97)"/>
      <path class="cls-13" d="M225.39,115.29l.18-2.49-30.04-2.12.61-8.63,27.55,1.94-.78,11.12,2.48.17.18-2.49-.18,2.49,2.48.17.96-13.6c.1-1.37-.93-2.56-2.31-2.66l-32.52-2.29c-1.37-.1-2.56.93-2.66,2.31l-.96,13.6c-.05.66.17,1.3.6,1.81.44.51,1.04.8,1.71.85l32.53,2.29c.66.05,1.3-.17,1.81-.6.5-.44.8-1.05.85-1.71l-2.48-.17Z"/>
      <polygon class="cls-13" points="225.55 113.07 193.03 110.77 193.26 107.41 225.79 109.71 225.55 113.07"/>
      <rect class="cls-13" x="208.13" y="88.15" width="3.37" height="32.61" transform="translate(90.87 306.41) rotate(-85.97)"/>
      <path class="cls-13" d="M185.93,282.69c-.06.86-.81,1.51-1.67,1.45-.86-.05-1.51-.81-1.46-1.67l11.41-161.68c.07-.86.81-1.51,1.68-1.45.86.06,1.51.81,1.45,1.67l-11.41,161.68Z"/>
      <path class="cls-13" d="M198.75,283.6c-.06.86-.81,1.51-1.68,1.45-.86-.07-1.51-.81-1.45-1.68l11.41-161.68c.07-.87.81-1.51,1.68-1.45.86.06,1.51.81,1.45,1.67l-11.41,161.68Z"/>
      <path class="cls-13" d="M211.57,284.51c-.06.86-.81,1.51-1.67,1.45s-1.51-.81-1.46-1.67l11.41-161.68c.06-.87.81-1.51,1.67-1.45.86.06,1.51.81,1.45,1.67l-11.41,161.68Z"/>
      <polygon class="cls-6" points="285.01 374.58 132.02 374.58 114.46 168.92 304.45 168.92 285.01 374.58"/>
      <rect class="cls-6" x="125.75" y="366.75" width="167.41" height="19.75"/>
    </g>
    <text class="cls-2" transform="translate(916.48 193.14)"><tspan class="cls-8" x="0" y="0">P</tspan><tspan class="cls-18" x="64.7" y="0">r</tspan><tspan class="cls-21" x="109.3" y="0">o</tspan><tspan class="cls-4" x="175.87" y="0">c</tspan><tspan class="cls-16" x="230.75" y="0">e</tspan><tspan x="293.58" y="0">ss </tspan><tspan x="-136.4" y="140.14">Imp</tspan><tspan class="cls-18" x="60.02" y="140.14">r</tspan><tspan class="cls-14" x="104.63" y="140.14">o</tspan><tspan class="cls-15" x="169.68" y="140.14">v</tspan><tspan x="229.82" y="140.14">ement</tspan></text>
  </g>
  <g id="Transformation">
    <text class="cls-3" transform="translate(135.09 -410.52)"><tspan class="cls-11" x="0" y="0">T</tspan><tspan class="cls-12" x="56.91" y="0">r</tspan><tspan x="100.96" y="0">ans</tspan><tspan class="cls-9" x="278.41" y="0">f</tspan><tspan x="322.69" y="0">o</tspan><tspan class="cls-1" x="387.57" y="0">r</tspan><tspan x="431.84" y="0">mation,</tspan><tspan class="cls-5" x="1.03" y="136.59">A</tspan><tspan x="69.66" y="136.59">u</tspan><tspan class="cls-17" x="134.2" y="136.59">t</tspan><tspan x="177" y="136.59">omation and</tspan><tspan x="132.89" y="273.18">Inn</tspan><tspan class="cls-19" x="294.29" y="273.18">o</tspan><tspan class="cls-10" x="357.69" y="273.18">v</tspan><tspan x="415.97" y="273.18">ation</tspan></text>
  </g>
</svg>