<?xml version="1.0" encoding="UTF-8"?>
<svg id="Casa" xmlns="http://www.w3.org/2000/svg" viewBox="0 0 748.02 461.11">
  <defs>
    <style>
      .cls-1, .cls-2 {
        fill: #fff;
      }

      .cls-3 {
        letter-spacing: -.02em;
      }

      .cls-4 {
        letter-spacing: -.02em;
      }

      .cls-5 {
        fill: #112c63;
        stroke: #fff;
        stroke-miterlimit: 10;
        stroke-width: 3px;
      }

      .cls-6 {
        fill: #002f6f;
      }

      .cls-2 {
        font-family: BalooBhai2-SemiBold, 'Baloo Bhai 2';
        font-size: 89.39px;
        font-weight: 600;
      }

      .cls-7 {
        fill: #00d9b8;
      }
    </style>
  </defs>
  <g id="Production">
    <polygon class="cls-5" points="748.07 .22 748.07 461.22 .07 460.76 1.54 156.95 1.54 .98 748.07 .22"/>
    <g>
      <rect class="cls-1" x="496.61" y="254.53" width="46.82" height="176.78"/>
      <rect class="cls-1" x="561.6" y="278.98" width="46.81" height="152.32"/>
      <rect class="cls-1" x="622.38" y="315.32" width="46.82" height="115.99"/>
      <rect class="cls-1" x="478.45" y="427.11" width="208.92" height="13.97"/>
      <path class="cls-1" d="M687.36,441.08v-1.8h-207.12v-10.38h205.32v12.17h1.8v-1.8,1.8h1.8v-13.97c0-.47-.19-.94-.53-1.27-.34-.34-.8-.53-1.27-.53h-208.92c-.48,0-.94.19-1.28.53-.33.33-.52.8-.52,1.27v13.97c0,.48.19.94.52,1.27.34.34.8.53,1.28.53h208.92c.47,0,.94-.19,1.27-.53.34-.34.53-.8.53-1.27h-1.8Z"/>
      <path class="cls-7" d="M702.51,381.28c17.88,9.53,24.66,31.74,15.13,49.62-9.53,17.88-31.74,24.66-49.62,15.13-17.88-9.53-24.66-31.74-15.13-49.62,9.53-17.88,31.74-24.66,49.62-15.13"/>
      <path class="cls-1" d="M702.51,381.28l-.85,1.59c8.51,4.53,14.36,12.07,16.97,20.61,2.6,8.55,1.95,18.07-2.58,26.57-4.53,8.5-12.07,14.36-20.61,16.97-8.55,2.6-18.07,1.95-26.57-2.58-8.51-4.53-14.36-12.07-16.97-20.61-2.6-8.55-1.95-18.07,2.58-26.57,4.53-8.51,12.07-14.36,20.61-16.97,8.55-2.6,18.07-1.95,26.57,2.58l.85-1.59.85-1.59c-18.76-10-42.06-2.89-52.06,15.87-9.99,18.76-2.89,42.06,15.87,52.06,18.76,9.99,42.06,2.89,52.06-15.87,9.99-18.76,2.88-42.06-15.87-52.06l-.85,1.59Z"/>
      <path class="cls-6" d="M696.55,405.97l-15.67-17.22c-.85-.93-2.11-1.26-3.25-.99l-.2.05-.06.02h-.03s-.16.08-.16.08h-.02s-.34.15-.34.15l-.28.17-.26.18-.25.23-.22.22-.19.25-.18.28-.14.29-.12.3-.09.36-.05.22-3.39,23.03c-.27,1.83.99,3.52,2.82,3.79.5.08,1,.03,1.46-.11,1.2-.36,2.14-1.39,2.34-2.71l1.22-8.31,9.48,31.08c.54,1.77,2.41,2.76,4.17,2.22,1.77-.54,2.76-2.41,2.22-4.17l-9.52-31.23,5.77,6.34c.9.99,2.25,1.31,3.45.95.46-.14.89-.38,1.28-.73,1.36-1.24,1.46-3.36.22-4.72"/>
    </g>
    <text class="cls-2" transform="translate(49.56 115.32)"><tspan class="cls-4" x="0" y="0">P</tspan><tspan class="cls-3" x="49.52" y="0">r</tspan><tspan x="83.66" y="0">oduction</tspan><tspan x="-40.09" y="107.26">Management</tspan></text>
  </g>
</svg>