<?xml version="1.0" encoding="UTF-8"?>
<svg id="Casa" xmlns="http://www.w3.org/2000/svg" viewBox="0 0 655.8 1557.52">
  <defs>
    <style>
      .cls-1 {
        letter-spacing: 0em;
      }

      .cls-2 {
        letter-spacing: 0em;
      }

      .cls-3, .cls-4 {
        fill: #fff;
      }

      .cls-5 {
        letter-spacing: 0em;
      }

      .cls-6 {
        letter-spacing: -.01em;
      }

      .cls-7 {
        fill: #00b1e2;
        stroke: #000;
        stroke-miterlimit: 10;
      }

      .cls-8 {
        letter-spacing: 0em;
      }

      .cls-9 {
        letter-spacing: 0em;
      }

      .cls-4 {
        font-family: BalooBhai2-SemiBold, 'Baloo Bhai 2';
        font-size: 131px;
        font-weight: 600;
      }

      .cls-10 {
        fill: #00d9b8;
      }

      .cls-11 {
        letter-spacing: 0em;
      }
    </style>
  </defs>
  <g id="Lean_six_sigma" data-name="Lean six sigma">
    <rect class="cls-7" x="155.75" y="-2.1" width="501.76" height="1557.85"/>
    <g>
      <path class="cls-3" d="M250.23,568.36c-14.33,0-29.68,9.69-31.58,30.82h63.17c-1.9-21.13-17.25-30.82-31.58-30.82"/>
      <path class="cls-3" d="M614.42,512.96h-.56c-.58.01-1.15.04-1.73.06-.65.02-1.3.04-1.95.08-.69.04-1.38.08-2.06.13-.5.03-1.02.07-1.51.12-.84.07-1.67.15-2.52.25-.31.03-.62.07-.94.1-1.01.12-2.03.26-3.04.41-.08.01-.17.02-.26.03-15.1,2.28-29.78,7.71-43.17,15.79,7.69,9.8,17.78,18.9,29.42,26.5,11.63,7.57,23.7,12.94,35.9,15.98,2.56-20.51.12-41.22-7.58-59.45"/>
      <path class="cls-3" d="M460.5,616.99c8.33-3.72,17.71-5.7,27.76-5.86,1.48-6.71,3.52-13.39,6.05-19.94-13.32,3.11-24.16,10.35-31.03,20.87-1.03,1.59-1.96,3.24-2.78,4.94"/>
      <path class="cls-3" d="M337.68,938.09c58.33.25,231.46.89,249.05-.08,12.86-.68,20.9-15.5,24.47-23.97l-262.14,2.52c-1,6.55-4.21,15.04-11.38,21.53"/>
      <path class="cls-10" d="M340.45,869.02c0-12.13-7.64-23.21-19.01-27.6-1.43-.55-2.48-1.8-2.79-3.3-3.2-16.22-17.56-27.98-34.15-27.98-6.78,0-13.37,1.94-19.05,5.65-2,1.3-4.68.8-6.07-1.13-8.18-11.28-21.38-18.02-35.31-18.02-22.45,0-41.11,16.81-43.41,39.11-.22,2.06-1.82,3.71-3.88,3.98-14.64,1.93-25.69,14.53-25.69,29.3,0,16.3,13.24,29.56,29.53,29.56h130.29c16.28,0,29.53-13.26,29.53-29.56"/>
      <path class="cls-3" d="M344.88,907.63l202.42-1.95v-236.33l-59.5-38.77c-1.41-.92-2.18-2.55-2.01-4.21.22-2.08.49-4.15.81-6.23-12.04.5-22.87,4-31.53,10.24-.79.56-1.71.84-2.62.84-.85,0-1.71-.24-2.45-.73-1.55-1.01-2.31-2.87-1.93-4.69,1.42-6.66,4.02-12.94,7.7-18.63,9.26-14.17,24.43-23.29,42.88-25.89.47-.97.95-1.95,1.44-2.92.04-.09.06-.19.11-.27.88-1.72,1.81-3.44,2.79-5.16l-226.68-4.01c8.68,7.41,14.67,19.05,14.67,34.73v198c17.24,2.58,31.56,15.29,35.94,32.35,13.55,6.26,22.5,20.03,22.5,35.01,0,21.24-17.27,38.54-38.5,38.54h-19.94v.29c0,23.77,1.08,30.09,27.2,30.16,22.01-4.61,22.27-25.02,22.27-25.9,0-2.45,1.98-4.45,4.44-4.48M354.24,651.77h89.55c2.48,0,4.48,2.01,4.48,4.48s-2.01,4.48-4.48,4.48h-89.55c-2.48,0-4.48-2.01-4.48-4.48s2.01-4.48,4.48-4.48M354.24,716.83h151.78c2.48,0,4.49,2.01,4.49,4.48s-2.01,4.48-4.49,4.48h-151.78c-2.48,0-4.48-2.01-4.48-4.48s2.01-4.48,4.48-4.48M354.24,781.84h116.6c2.47,0,4.48,2,4.48,4.48s-2.01,4.48-4.48,4.48h-116.6c-2.48,0-4.48-2.01-4.48-4.48s2.01-4.48,4.48-4.48M354.24,846.85h151.78c2.48,0,4.49,2.01,4.49,4.48s-2.01,4.48-4.49,4.48h-151.78c-2.48,0-4.48-2-4.48-4.48s2.01-4.48,4.48-4.48"/>
      <path class="cls-3" d="M549.14,534.83c-13.15,9.28-24.8,21.23-34,35.34-.25.39-.49.78-.74,1.17-.5.8-1.01,1.6-1.49,2.38-9.52,15.69-15.67,33.14-17.9,50.86l65.48,42.67c16.81-10.47,36.07-31.76,41.66-40.37,9.11-13.98,15.3-29.61,18.44-45.6-13.45-3.25-26.68-9.08-39.4-17.36-12.69-8.29-23.68-18.29-32.05-29.1M580.77,606.22c-3.32,5.1-8.44,8.6-14.4,9.84-1.56.33-3.13.49-4.68.49-4.36,0-8.64-1.26-12.37-3.72-10.49-6.79-13.49-20.89-6.67-31.42,6.88-10.52,21-13.49,31.49-6.65,5.09,3.3,8.58,8.39,9.84,14.33,1.26,5.95.12,12.03-3.22,17.13"/>
      <path class="cls-3" d="M591.36,654.43c-4.96,4.97-10.24,9.51-15.79,13.59,3.9,9.22,5.87,18.62,5.82,27.77,1.24-1.45,2.38-2.99,3.42-4.58,6.81-10.48,9.05-23.32,6.54-36.78"/>
      <path class="cls-3" d="M569.27,582.29s-.01,0-.02-.01c-2.31-1.52-4.93-2.23-7.5-2.23-4.51,0-8.93,2.2-11.58,6.25-4.13,6.37-2.31,14.91,4.05,19.03,3.07,2.02,6.73,2.71,10.32,1.96,3.61-.75,6.7-2.87,8.73-5.96,2.01-3.1,2.71-6.78,1.95-10.38-.77-3.59-2.88-6.66-5.95-8.65"/>
    </g>
    <text class="cls-4" transform="translate(247.5 194.47) rotate(44.52)"><tspan x="0" y="0">Qua</tspan><tspan class="cls-8" x="234.09" y="0">l</tspan><tspan class="cls-9" x="269.07" y="0">i</tspan><tspan class="cls-1" x="303.39" y="0">t</tspan><tspan x="354.09" y="0">y</tspan></text>
    <text class="cls-4" transform="translate(161.63 1023.54) rotate(44.52)"><tspan class="cls-11" x="0" y="0">A</tspan><tspan x="80.17" y="0">ssu</tspan><tspan class="cls-2" x="277.58" y="0">r</tspan><tspan x="328.28" y="0">an</tspan><tspan class="cls-6" x="470.93" y="0">c</tspan><tspan class="cls-5" x="532.5" y="0">e</tspan></text>
  </g>
</svg>