<?xml version="1.0" encoding="UTF-8"?>
<svg id="Casa" xmlns="http://www.w3.org/2000/svg" viewBox="0 0 1598.51 461.11">
  <defs>
    <style>
      .cls-1 {
        letter-spacing: 0em;
      }

      .cls-2 {
        letter-spacing: 0em;
      }

      .cls-3 {
        fill: #fff;
      }

      .cls-4 {
        letter-spacing: -.03em;
      }

      .cls-5 {
        letter-spacing: 0em;
      }

      .cls-6 {
        letter-spacing: -.04em;
      }

      .cls-7 {
        letter-spacing: 0em;
      }

      .cls-8 {
        font-family: BalooBhai2-SemiBold, 'Baloo Bhai 2';
        font-size: 113.82px;
        font-weight: 600;
      }

      .cls-9 {
        letter-spacing: 0em;
      }

      .cls-10 {
        fill: #112c63;
      }

      .cls-11 {
        letter-spacing: -.01em;
      }

      .cls-12 {
        fill: #55d6be;
      }
    </style>
  </defs>
  <g id="Transformation">
    <rect class="cls-12" x="-.42" y="-2.64" width="1607.69" height="463.27"/>
    <g>
      <path class="cls-10" d="M1326.01,216.84c9.09,13.61,19.36,28.98,21.9,62.26h26.84l-24.7-92.97c-7.48-.73-13.34-7.03-13.34-14.68,0-8.14,6.63-14.76,14.78-14.76s14.75,6.62,14.75,14.76c0,5.94-3.53,11.06-8.59,13.39l22.09,83.16,22.3-83.94c-4.28-2.58-7.14-7.26-7.14-12.62,0-8.14,6.61-14.76,14.75-14.76s14.76,6.62,14.76,14.76-6.62,14.76-14.76,14.76c-.07,0-.15-.02-.23-.02l-24.69,92.91h31.71c2.55-33.27,12.83-48.64,21.92-62.25,8.43-12.61,15.7-23.5,15.7-46.93,0-39.63-32.25-71.88-71.88-71.88s-71.86,32.24-71.86,71.88c0,23.43,7.27,34.32,15.69,46.93"/>
      <path class="cls-3" d="M1416.72,171.45c0-3.91-3.18-7.1-7.09-7.1s-7.08,3.19-7.08,7.1,3.17,7.09,7.08,7.09,7.09-3.18,7.09-7.09"/>
      <path class="cls-3" d="M1351.49,164.35c-3.93,0-7.12,3.19-7.12,7.1s3.19,7.09,7.12,7.09,7.09-3.18,7.09-7.09-3.19-7.1-7.09-7.1"/>
      <path class="cls-3" d="M1408.53,310.5h-52.71c-.85,0-1.58.73-1.58,1.59v12.86c0,.86.73,1.59,1.58,1.59h52.71c.87,0,1.61-.73,1.61-1.59v-12.86c0-.86-.74-1.59-1.61-1.59"/>
      <path class="cls-3" d="M1411.86,286.76h-59.35c-.87,0-1.61.73-1.61,1.59v12.87c0,.89.72,1.61,1.61,1.61h59.35c.86,0,1.59-.74,1.59-1.61v-12.87c0-.86-.73-1.59-1.59-1.59"/>
      <path class="cls-3" d="M1369.77,345.24c2.35,2.05,5.32,3.43,8.57,4.03v95.13c0,2.22,1.72,4.01,3.83,4.01s3.84-1.79,3.84-4.01v-95.13c6.94-1.27,13.1-6.07,13.95-15.07h-35.57c.43,4.52,2.27,8.31,5.37,11.03"/>
      <path class="cls-3" d="M1382.17,77.51c2.12,0,3.84-1.71,3.84-3.83v-40.38c0-2.12-1.72-3.84-3.84-3.84s-3.83,1.72-3.83,3.84v40.38c0,2.12,1.72,3.83,3.83,3.83"/>
      <path class="cls-3" d="M1321.43,90.99c1.06,1.83,3.41,2.47,5.23,1.41,1.83-1.06,2.46-3.4,1.41-5.23l-20.19-34.97c-.71-1.22-2-1.92-3.33-1.92-.65,0-1.3.16-1.91.52-1.83,1.05-2.47,3.4-1.41,5.23l20.19,34.96Z"/>
      <path class="cls-3" d="M1245.82,114.26l34.96,20.18c1.83,1.06,4.18.43,5.23-1.39,1.06-1.84.44-4.18-1.4-5.24l-34.96-20.19c-.6-.35-1.26-.51-1.92-.51-1.32,0-2.61.69-3.32,1.92-1.06,1.83-.43,4.17,1.4,5.23"/>
      <path class="cls-3" d="M1483.57,134.44l34.99-20.18c1.83-1.06,2.45-3.4,1.4-5.24-.71-1.23-2-1.92-3.32-1.92-.65,0-1.31.17-1.92.51l-34.98,20.18c-1.83,1.06-2.46,3.4-1.4,5.23,1.06,1.84,3.4,2.47,5.23,1.41"/>
      <path class="cls-3" d="M1437.68,92.39c1.83,1.06,4.18.43,5.24-1.4l20.22-34.96c1.06-1.83.43-4.18-1.4-5.23-.61-.36-1.27-.52-1.92-.52-1.32,0-2.61.69-3.32,1.92l-20.22,34.97c-1.06,1.83-.43,4.18,1.4,5.23"/>
    </g>
    <text class="cls-8" transform="translate(135.09 134.61)"><tspan class="cls-6" x="0" y="0">T</tspan><tspan class="cls-7" x="56.91" y="0">r</tspan><tspan x="100.96" y="0">ans</tspan><tspan class="cls-4" x="278.41" y="0">f</tspan><tspan x="322.69" y="0">o</tspan><tspan class="cls-1" x="387.57" y="0">r</tspan><tspan x="431.84" y="0">mation,</tspan><tspan class="cls-2" x="1.03" y="136.59">A</tspan><tspan x="69.66" y="136.59">u</tspan><tspan class="cls-9" x="134.2" y="136.59">t</tspan><tspan x="177" y="136.59">omation and</tspan><tspan x="132.89" y="273.18">Inn</tspan><tspan class="cls-11" x="294.29" y="273.18">o</tspan><tspan class="cls-5" x="357.69" y="273.18">v</tspan><tspan x="415.97" y="273.18">ation</tspan></text>
  </g>
</svg>